HIERARCHY
ROOT Hips
{
  OFFSET 40.9192 92.6879 18.85
  CHANNELS 6 Xposition Yposition Zposition Zrotation Xrotation Yrotation
  JOINT LeftUpLeg
  {
    OFFSET 8.64259 1.95398 -2.38835
    CHANNELS 3 Zrotation Xrotation Yrotation
    JOINT LeftLeg
    {
      OFFSET 43.7702 0 0
      CHANNELS 3 Zrotation Xrotation Yrotation
      JOINT LeftFoot
      {
        OFFSET 40.6238 0 0
        CHANNELS 3 Zrotation Xrotation Yrotation
        JOINT LeftToeBase
        {
          OFFSET 12.7242 0 0
          CHANNELS 3 Zrotation Xrotation Yrotation
          End Site
          {
            OFFSET 0 0 0
          }
        }
      }
    }
  }
  JOINT RightUpLeg
  {
    OFFSET -8.2249 1.95398 -2.59336
    CHANNELS 3 Zrotation Xrotation Yrotation
    JOINT RightLeg
    {
      OFFSET 43.5653 0 0
      CHANNELS 3 Zrotation Xrotation Yrotation
      JOINT RightFoot
      {
        OFFSET 40.6238 0 0
        CHANNELS 3 Zrotation Xrotation Yrotation
        JOINT RightToeBase
        {
          OFFSET 12.7242 0 0
          CHANNELS 3 Zrotation Xrotation Yrotation
          End Site
          {
            OFFSET 0 0 0
          }
        }
      }
    }
  }
  JOINT Spine
  {
    OFFSET 0.165834 0.87714 6.61349
    CHANNELS 3 Zrotation Xrotation Yrotation
    JOINT Spine1
    {
      OFFSET 7.38963 1.71661e-005 0
      CHANNELS 3 Zrotation Xrotation Yrotation
      JOINT Spine2
      {
        OFFSET 11.9445 1.14441e-005 0
        CHANNELS 3 Zrotation Xrotation Yrotation
        JOINT Spine3
        {
          OFFSET 14.7254 4.19617e-005 0
          CHANNELS 3 Zrotation Xrotation Yrotation
          JOINT Spine4
          {
            OFFSET 10.9679 0 0
            CHANNELS 3 Zrotation Xrotation Yrotation
            JOINT RightShoulder
            {
              OFFSET 2.46616 -1.6653 3.69651
              CHANNELS 3 Zrotation Xrotation Yrotation
              JOINT RightArm
              {
                OFFSET 13.0012 0 0
                CHANNELS 3 Zrotation Xrotation Yrotation
                JOINT RightForeArm
                {
                  OFFSET 28.7848 1.52588e-005 0
                  CHANNELS 3 Zrotation Xrotation Yrotation
                  JOINT RightHand
                  {
                    OFFSET 26.5688 1.52588e-005 0
                    CHANNELS 3 Zrotation Xrotation Yrotation
                    End Site
                    {
                      OFFSET 0 0 0
                    }
                  }
                }
              }
            }
            JOINT LeftShoulder
            {
              OFFSET 2.38034 -1.29275 -3.7523
              CHANNELS 3 Zrotation Xrotation Yrotation
              JOINT LeftArm
              {
                OFFSET 16.3182 6.10351e-005 0
                CHANNELS 3 Zrotation Xrotation Yrotation
                JOINT LeftForeArm
                {
                  OFFSET 27.0901 0 0
                  CHANNELS 3 Zrotation Xrotation Yrotation
                  JOINT LeftHand
                  {
                    OFFSET 24.5451 1.52588e-005 0
                    CHANNELS 3 Zrotation Xrotation Yrotation
                    End Site
                    {
                      OFFSET 0 0 0
                    }
                  }
                }
              }
            }
            JOINT Neck
            {
              OFFSET 5.0226 -0.0266342 0
              CHANNELS 3 Zrotation Xrotation Yrotation
              JOINT Head
              {
                OFFSET 6.69363 2.86102e-005 0
                CHANNELS 3 Zrotation Xrotation Yrotation
                End Site
                {
                  OFFSET 0 0 0
                }
              }
            }
          }
        }
      }
    }
  }
}
MOTION
Frames:	7
Frame Time:	0.0416667
-125.607 84.3617 -158.892 95.0566 -40.0588 94.3796 82.447 25.8273 50.6868 -145.811 48.7563 89.6464 55.9571 -12.2405 24.7378 38.6607 -29.7194 112.382 173.609 51.3894 97.3853 -51.1674 -4.49476 1.4694 61.1389 1.09428 1.12587 34.2658 0.374131 -5.87751 -0.998029 8.26282 -89.6046 10.3566 -1.80723 0.941807 -1.31342 -1.76402 1.02044 -23.8582 -2.0067 0.354942 -3.84558 -2.00669 0.354935 89.8962 -49.2679 -101.151 24.4308 -0.601034 45.856 -2.81232 -21.8721 -24.5569 -3.07492 -0.70206 7.78604 -90.6341 -37.7648 74.6337 -14.7853 -7.76427 -18.3987 15.2623 -6.27264 -104.827 27.2082 2.53053 5.5449 18.3151 1.79313 -8.12788 -2.67967 4.07327 5.94172 
-115.76 75.2599 -150.489 91.8098 -37.5735 91.6696 36.7613 59.5822 71.6759 -92.026 66.1285 8.32621 53.0478 -10.5305 28.8672 40.9594 -28.8264 119.98 170.911 60.7705 96.7474 -51.5807 -6.72947 2.28789 53.9985 2.93768 2.62822 37.3802 0.364957 -7.31169 -1.12227 8.03981 -89.7694 10.7984 -2.12815 0.655685 -0.871025 -2.09723 0.748752 -23.4198 -2.22682 -0.0145358 -3.40721 -2.22679 -0.014531 91.0305 -50.1602 -99.2106 26.3941 -1.0661 34.913 -1.46043 -19.5148 -25.1947 -5.20414 -0.857091 7.58506 -92.8531 -40.3824 71.7057 -17.1519 1.9315 -18.68 13.6613 -0.0925142 -87.9611 25.287 2.1807 4.84546 21.5639 1.19917 -6.82664 -4.3271 3.23066 5.10562 
-104.372 70.0444 -141.408 87.7309 -38.7318 92.6265 86.0932 50.2148 52.8402 -86.9392 86.0818 -5.31407 149.047 -12.9826 70.7227 44.3161 23.8539 55.3378 156.373 67.6126 109.721 -73.9475 -6.98312 7.16151 64.7455 -4.19051 -1.99501 25.953 0.18022 -3.60974 -1.09161 7.56993 -90.6776 11.7228 -2.48917 -1.08915 0.0538677 -2.53467 -0.978499 -22.4916 -2.04678 -1.78705 -2.47892 -2.04678 -1.78705 90.4717 -51.8642 -99.6909 21.8431 -5.02457 19.3125 2.27918 -21.6373 -27.8867 -6.25099 -0.816479 5.18849 -95.7718 -43.7182 68.1215 -17.2606 13.7897 -16.9148 5.72801 4.01172 -55.0414 23.8976 1.56363 2.71015 24.0674 3.82376 -3.05243 -6.60676 4.59073 5.65799 
-90.1028 72.2061 -131.421 91.7887 -45.662 95.7903 125.54 38.3346 65.9696 59.3156 57.5428 -168.831 146.324 -2.36159 73.384 38.5512 9.79619 40.4851 167.482 57.0233 109.158 -85.9211 -3.328 0.0976188 81.6274 -7.16389 -3.11787 27.9243 0.24052 -3.97642 -0.263084 8.04504 -90.7421 10.7769 -0.866483 -1.39738 -0.894588 -0.927111 -1.35792 -23.4239 -0.406514 -1.59315 -3.41126 -0.406544 -1.59316 87.7759 -48.7849 -104.549 24.2743 -9.30337 2.42774 2.57641 -18.9305 -37.6538 -13.765 -1.16105 3.79186 -101.323 -47.6967 61.1816 -16.031 18.5831 -11.3701 -1.22873 10.6373 -30.4328 17.0882 1.68908 6.01995 25.9038 4.64185 -0.350637 -5.94564 4.56592 3.54218 
-75.0145 84.6096 -117.489 90.5012 -47.4397 91.0734 131.542 44.697 85.9915 71.3541 43.5155 178.577 113.893 -12.9501 66.566 37.5789 9.30983 53.2714 177.371 32.995 98.9032 -69.8727 -5.39344 -3.30612 82.6019 -6.09404 -3.05023 35.9758 0.398964 -4.44649 0.563359 7.96825 -90.1498 10.9487 1.05223 -0.397893 -0.721786 1.03372 -0.443831 -23.2614 1.12319 -0.063218 -3.24877 1.12321 -0.0632188 88.4984 -46.8741 -103.954 23.5316 -11.4448 -8.86269 -3.17748 -17.0002 -55.7856 -18.853 -0.607162 -1.11889 -101.301 -49.0621 61.7622 -22.7505 16.991 1.13959 0.20921 19.5713 -22.854 12.9745 1.8987 10.2298 22.7058 1.58836 -0.845601 -4.07479 1.80618 2.66522 
-62.8221 99.5704 -106.555 93.1871 -49.3839 87.6632 149.37 49.0487 92.8599 96.0365 34.5365 170.994 70.8351 -34.286 53.8726 34.5458 0.798927 70.8302 178.481 13.2421 90.487 -46.2264 -8.46517 -6.12341 54.5566 1.63072 1.74094 28.0062 -0.162216 0.0128021 1.07698 7.96291 -89.3956 10.9409 2.42397 0.973216 -0.728037 2.46447 0.865534 -23.2739 2.01943 1.6569 -3.26125 2.01943 1.65689 89.3279 -44.1441 -103.376 22.4828 -11.2411 -15.0175 -12.226 -14.2223 -70.9455 -20.7382 -0.716203 -0.888137 -98.5907 -48.3349 65.463 -27.6979 16.0241 16.3372 -0.141455 21.7738 -19.5752 8.52121 1.16497 8.73661 14.4238 -0.175487 0.401354 -1.00732 -0.256308 0.17831 
-50.599 106.821 -97.5849 92.5986 -53.0937 86.946 153.661 49.9762 96.348 114.876 37.1636 168.379 57.7191 -34.8591 47.0136 34.0525 -0.674206 70.8329 177.511 9.17846 90.2741 -36.0147 -18.5757 -6.29932 47.412 3.92486 3.5491 22.1093 0.96239 -10.5429 1.54661 7.85308 -89.3929 11.1574 3.36041 0.880487 -0.509382 3.39591 0.731572 -23.0704 2.94036 1.85043 -3.0577 2.94036 1.85043 90.6994 -39.2605 -102.416 23.1977 -10.4557 -19.1935 -17.6046 -7.70383 -83.95 -17.571 -0.638941 -0.969527 -96.806 -46.0755 67.3409 -33.9607 13.0776 30.5748 -0.873473 17.8952 -17.5895 4.62693 0.567424 6.35719 13.8117 -0.0393845 4.18344 -2.86867 -1.04507 -2.01149 
